<svg class="cat-svg" xmlns="http://www.w3.org/2000/svg" viewBox="0 0 512.001 512.001"><path class="cat-icon" d="M503.777 24.552H8.223A8.224 8.224 0 0 0 0 32.775v49.973a8.224 8.224 0 0 0 8.223 8.223h91.74a8.224 8.224 0 0 0 0-16.446H16.445V40.998h479.109v33.528h-362.7a8.224 8.224 0 0 0 0 16.446h101.963v109.294l-28.669 9.144c-49.35 15.744-76.695 68.701-60.954 118.054 12.48 39.13 48.443 65.423 89.493 65.426a93.878 93.878 0 0 0 28.57-4.468l.034-.011 90.362-28.82a8.224 8.224 0 0 0 5.336-10.332 8.221 8.221 0 0 0-10.332-5.335l-39.806 12.696a95.041 95.041 0 0 0 9.331-14.597c14.079-27.265 13.686-60.855-.861-87.857l-.063-.118a93.468 93.468 0 0 0-55.428-45.134l94.512-30.143.291-.092v50.174c0 20.284 17.651 37.174 38.052 36.146 19.096-.971 34.334-16.813 34.334-36.146V192.67c11.527 9.411 20.111 21.959 24.713 36.39 12.986 40.716-9.573 84.406-50.29 97.391l-21.894 6.983a8.224 8.224 0 0 0 4.996 15.668l21.894-6.983c49.355-15.74 76.701-68.701 60.961-118.056-6.891-21.606-21.143-39.72-40.381-51.5V90.97h74.761a8.224 8.224 0 0 0 8.223-8.223V32.775a8.226 8.226 0 0 0-8.225-8.223zM310.56 283.012l.018.091c8.804 41.928-22.194 85.725-64.299 92.444-3.833.612-7.717.89-11.598.868-32.801-.181-63.682-22.165-73.82-53.951-12.956-40.621 10.648-85.617 51.586-97.789 42.518-12.642 88.943 14.782 98.113 58.337zm-19.803-100.589l-39.495 12.596V90.97h39.495v91.453zM356.63 161.6c-1.801.456-49.428 15.577-49.428 15.577V90.97h49.428v70.63zm55.941 67.249c0 12.181-11.729 21.912-23.704 19.261-8.747-1.936-15.791-9.845-15.791-19.262V90.971h39.495v137.878z"/><circle class="cat-icon" cx="392.826" cy="226.728" r="9.772"/><path class="cat-icon" d="M292.874 280.361c-4.949-15.517-15.664-28.187-30.17-35.678-14.504-7.49-31.039-8.89-46.556-3.941a60.785 60.785 0 0 0-18.077 9.333 8.224 8.224 0 0 0-1.636 11.513 8.222 8.222 0 0 0 11.513 1.636 44.351 44.351 0 0 1 13.196-6.814c11.332-3.614 23.412-2.59 34.015 2.886 10.602 5.475 18.432 14.731 22.046 26.063 3.615 11.331 2.59 23.412-2.886 34.013-5.475 10.602-14.731 18.432-26.063 22.046-11.332 3.615-23.412 2.589-34.015-2.886-10.603-5.475-18.433-14.731-22.047-26.063a44.294 44.294 0 0 1-.3-26.07 8.223 8.223 0 0 0-15.776-4.644c-3.448 11.713-3.306 24.062.409 35.711 8.27 25.93 32.343 42.514 58.212 42.511a60.887 60.887 0 0 0 18.513-2.893c15.519-4.946 28.19-15.659 35.68-30.165 7.491-14.506 8.89-31.042 3.942-46.558zM124.64 343.553a8.22 8.22 0 0 0-10.683-4.593l-85.264 33.99a8.225 8.225 0 1 0 3.048 15.863 8.2 8.2 0 0 0 3.042-.587l85.264-33.99a8.225 8.225 0 0 0 4.593-10.683zm-23.678-87.066H11.477a8.224 8.224 0 0 0 0 16.446h89.485a8.224 8.224 0 0 0 0-16.446zm68.837 153.19a8.222 8.222 0 0 0-11.628.078l-62.852 63.696a8.221 8.221 0 0 0 5.853 13.997 8.196 8.196 0 0 0 5.853-2.447l62.852-63.696a8.221 8.221 0 0 0-.078-11.628z"/></svg>