<svg class="cat-svg" xmlns="http://www.w3.org/2000/svg" viewBox="0 0 512 512"><path class="cat-icon" d="M495.832 199.411h-55.809L429.794 10.197A10.779 10.779 0 0 0 419.032 0h-53.895a10.78 10.78 0 0 0-10.763 10.197l-10.228 189.214h-22.692L311.226 10.197A10.779 10.779 0 0 0 300.463 0h-53.895a10.778 10.778 0 0 0-10.763 10.197l-10.228 189.214H16.168c-5.953 0-10.779 4.827-10.779 10.779v291.032c0 5.952 4.826 10.779 10.779 10.779h479.663c5.952 0 10.779-4.827 10.779-10.779V210.189c.001-5.952-4.826-10.778-10.778-10.778zM375.349 21.558h33.472l9.614 177.853h-52.699l9.613-177.853zm-118.569 0h33.472l9.614 177.853h-52.698l9.612-177.853zm-38.506 468.884H70.063V394.92h148.211v95.522zm0-117.08H70.063v-23.046h148.211v23.046zm266.779 117.08H239.832V339.537c0-5.952-4.826-10.779-10.779-10.779H59.284c-5.953 0-10.779 4.827-10.779 10.779v150.905H26.947V220.968h458.105v269.474z"/><path class="cat-icon" d="M275.402 426.718h77.608c5.952 0 10.779-4.827 10.779-10.779s-4.827-10.779-10.779-10.779h-66.829v-54.844h155.756v65.623c0 5.952 4.827 10.779 10.779 10.779s10.779-4.827 10.779-10.779v-76.402c0-5.952-4.827-10.779-10.779-10.779H275.402c-5.952 0-10.779 4.827-10.779 10.779v76.402c0 5.952 4.827 10.779 10.779 10.779z"/><path class="cat-icon" d="M404.749 405.16h-1.078c-5.952 0-10.779 4.827-10.779 10.779s4.827 10.779 10.779 10.779h1.078c5.952 0 10.779-4.827 10.779-10.779s-4.826-10.779-10.779-10.779zM59.284 307.2h66.021c5.953 0 10.779-4.827 10.779-10.779v-43.116c0-5.952-4.826-10.779-10.779-10.779H59.284c-5.953 0-10.779 4.827-10.779 10.779v43.116c0 5.952 4.826 10.779 10.779 10.779zm10.779-43.116h44.463v21.558H70.063v-21.558zm98.358 43.116h66.021c5.953 0 10.779-4.827 10.779-10.779v-43.116c0-5.952-4.826-10.779-10.779-10.779h-66.021c-5.953 0-10.779 4.827-10.779 10.779v43.116c0 5.952 4.826 10.779 10.779 10.779zm10.779-43.116h44.463v21.558H179.2v-21.558z"/></svg>