<svg class="cat-svg" xmlns="http://www.w3.org/2000/svg" viewBox="0 0 512 512"><path class="cat-icon" d="M298.667 384h-85.333a8.53 8.53 0 0 0-8.533 8.533v59.733a8.53 8.53 0 0 0 8.533 8.533h85.333a8.525 8.525 0 0 0 8.533-8.533v-59.733a8.525 8.525 0 0 0-8.533-8.533zm-8.534 59.733h-68.267v-42.667h68.267v42.667z"/><path class="cat-icon" d="M247.467 392.533h17.067v59.733h-17.067z"/><path class="cat-icon" d="M341.333 51.2H170.667a8.536 8.536 0 0 0-8.533 8.533v392.533a8.53 8.53 0 0 0 8.533 8.533h170.667a8.525 8.525 0 0 0 8.533-8.533V59.733a8.531 8.531 0 0 0-8.534-8.533zM332.8 443.733H179.2V68.267h153.6v375.466z"/><path class="cat-icon" d="M170.667 85.333H102.4a8.536 8.536 0 0 0-8.533 8.533v358.4a8.53 8.53 0 0 0 8.533 8.533h68.267a8.53 8.53 0 0 0 8.533-8.533v-358.4a8.536 8.536 0 0 0-8.533-8.533zm-8.534 358.4h-51.2V102.4h51.2v341.333z"/><path class="cat-icon" d="M76.8 85.333h25.6V102.4H76.8zM145.067 51.2h221.867v17.067H145.067zm51.2 290.133h17.067v25.6h-17.067zm34.133 0h17.067v25.6H230.4zm34.133 0H281.6v25.6h-17.067zm34.134 0h17.067v25.6h-17.067zm-102.4-42.666h17.067v25.6h-17.067zm34.133 0h17.067v25.6H230.4zm34.133 0H281.6v25.6h-17.067zm34.134 0h17.067v25.6h-17.067zM196.267 256h17.067v25.6h-17.067zm34.133 0h17.067v25.6H230.4zm34.133 0H281.6v25.6h-17.067zm34.134 0h17.067v25.6h-17.067zm-102.4-42.667h17.067v25.6h-17.067zm34.133 0h17.067v25.6H230.4zm34.133 0H281.6v25.6h-17.067zm34.134 0h17.067v25.6h-17.067zm-102.4-42.666h17.067v25.6h-17.067zm34.133 0h17.067v25.6H230.4zm34.133 0H281.6v25.6h-17.067zm34.134 0h17.067v25.6h-17.067zM196.267 128h17.067v25.6h-17.067zm34.133 0h17.067v25.6H230.4zm34.133 0H281.6v25.6h-17.067zm34.134 0h17.067v25.6h-17.067zm-102.4-42.667h17.067v25.6h-17.067zm34.133 0h17.067v25.6H230.4zm34.133 0H281.6v25.6h-17.067zm34.134 0h17.067v25.6h-17.067zM128 384h17.067v25.6H128zm0-42.667h17.067v25.6H128zm0-42.666h17.067v25.6H128zM128 256h17.067v25.6H128zm0-42.667h17.067v25.6H128zm0-42.666h17.067v25.6H128zM128 128h17.067v25.6H128zm281.6-42.667h-68.267a8.53 8.53 0 0 0-8.533 8.533v358.4a8.525 8.525 0 0 0 8.533 8.533H409.6a8.525 8.525 0 0 0 8.533-8.533v-358.4a8.53 8.53 0 0 0-8.533-8.533zm-8.533 358.4h-51.2V102.4h51.2v341.333z"/><path class="cat-icon" d="M409.6 85.333h25.6V102.4h-25.6zM366.933 384H384v25.6h-17.067zm0-42.667H384v25.6h-17.067zm0-42.666H384v25.6h-17.067zm0-42.667H384v25.6h-17.067zm0-42.667H384v25.6h-17.067zm0-42.666H384v25.6h-17.067zm0-42.667H384v25.6h-17.067zM0 443.733h102.4V460.8H0zm409.6 0H512V460.8H409.6z"/><path class="cat-icon" d="M34.133 273.067H51.2v179.2H34.133z"/><path class="cat-icon" d="M3.413 296.96l10.24-13.653 68.267 51.2-10.24 13.653z"/><path class="cat-icon" d="M3.397 334.528l68.26-51.22 10.245 13.653-68.262 51.22zM460.8 273.067h17.067v179.2H460.8z"/><path class="cat-icon" d="M430.08 296.96l10.235-13.647 68.266 51.2-10.235 13.646z"/><path class="cat-icon" d="M430.031 334.538l68.273-51.181 10.23 13.647-68.272 51.18z"/></svg>