<?xml-stylesheet type="text/css" href="../css/main.css"?><svg class="cat-svg" xmlns="http://www.w3.org/2000/svg" viewBox="0 0 512 512"><path class="cat-icon" d="M400.899 6.896C396.457 2.449 390.546 0 384.257 0s-12.199 2.449-16.638 6.894L319.522 54.99c-4.445 4.445-6.894 10.354-6.894 16.639 0 3.695.853 7.258 2.454 10.472l-34.266 34.266c-9.701 9.701-15.365 22.358-16.173 35.939h-17.287c-.808-13.581-6.471-26.238-16.173-35.939L196.916 82.1a23.423 23.423 0 0 0 2.454-10.472c0-6.284-2.449-12.193-6.894-16.638L144.382 6.896C139.94 2.449 134.03 0 127.741 0c-6.29 0-12.2 2.449-16.639 6.894a23.374 23.374 0 0 0-6.894 16.639c0 6.285 2.448 12.193 6.894 16.639l48.093 48.093c4.442 4.448 10.352 6.897 16.642 6.897 3.697 0 7.26-.852 10.473-2.453l34.266 34.266c7.668 7.668 11.891 17.863 11.891 28.706v42.569c-4.909 4.316-8.016 10.635-8.016 17.67V497h-16.548a7.5 7.5 0 0 0 0 15h96.193a7.5 7.5 0 0 0 0-15h-16.548V215.919c0-7.035-3.107-13.354-8.016-17.67V155.68c0-10.843 4.223-21.038 11.891-28.706l34.266-34.266a23.43 23.43 0 0 0 10.473 2.453c6.29 0 12.2-2.449 16.639-6.894l48.097-48.097a23.374 23.374 0 0 0 6.894-16.639c0-6.285-2.451-12.192-6.893-16.635zM181.866 77.665a8.463 8.463 0 0 1-6.028 2.497 8.471 8.471 0 0 1-6.032-2.501l-48.097-48.097c-3.326-3.326-3.326-8.738.003-12.067 1.608-1.61 3.75-2.497 6.029-2.497s4.42.887 6.032 2.5l48.097 48.098a8.475 8.475 0 0 1 2.5 6.031 8.48 8.48 0 0 1-2.504 6.036zm65.601 89.641h17.064V192.4c-.172-.003-.343-.013-.516-.013h-16.032c-.173 0-.344.009-.516.013v-25.094zm-8.017 48.613c0-4.705 3.828-8.532 8.532-8.532h16.032c4.706 0 8.533 3.828 8.533 8.532v208.936H239.45V215.919zM272.548 497h-33.097v-57.145h33.097V497zM390.289 29.564l-48.1 48.1a8.463 8.463 0 0 1-6.029 2.497c-2.28 0-4.42-.887-6.032-2.5a8.477 8.477 0 0 1-2.5-6.032c0-2.277.888-4.419 2.5-6.032l48.1-48.1A8.463 8.463 0 0 1 384.256 15c2.28 0 4.421.887 6.032 2.5 3.327 3.326 3.327 8.738.001 12.064z"/></svg>